<svg xmlns="http://www.w3.org/2000/svg" viewBox="50 30 295 195" fill="none">
  <rect x="50" y="30" width="295" height="195" rx="28" fill="#2563eb"/>
  <path d="M180 50 L180 205" stroke="#ffffff" stroke-width="4" stroke-linecap="round"/>
  <path d="M180 50 Q120 44 70 60 L70 195 Q120 182 180 205 Z" fill="rgba(255,255,255,0.14)" stroke="#ffffff" stroke-width="3" stroke-linejoin="round"/>
  <path d="M180 50 Q240 44 290 60 L290 195 Q240 182 180 205 Z" fill="rgba(255,255,255,0.14)" stroke="#ffffff" stroke-width="3" stroke-linejoin="round"/>
  <path fill="#ffffff" d="M100 95h32c14 0 24 9 24 23 0 11-6 19-16 21l19 32h-19l-17-30h-10v30h-13V95zm19 16v21h12c6 0 10-3.5 10-10.5S137 111 131 111h-12z"/>
  <circle cx="250" cy="115" r="40" fill="rgba(255,255,255,0.12)" stroke="#ffffff" stroke-width="5"/>
  <path d="M280 145 L312 192" stroke="#ffffff" stroke-width="12" stroke-linecap="round"/>
</svg>
